<svg xmlns="http://www.w3.org/2000/svg" xmlns:xlink="http://www.w3.org/1999/xlink" width="1920" zoomAndPan="magnify" viewBox="0 0 1440 809.999993" height="1080" preserveAspectRatio="xMidYMid meet" version="1.0"><defs><g/><clipPath id="509c86f118"><path d="M 86 454 L 575.535156 454 L 575.535156 587 L 86 587 Z M 86 454 " clip-rule="nonzero"/></clipPath><clipPath id="f1766975bc"><path d="M 23.535156 327 L 237 327 L 237 573 L 23.535156 573 Z M 23.535156 327 " clip-rule="nonzero"/></clipPath></defs><rect x="-144" width="1728" fill="#ffffff" y="-80.999999" height="971.999992" fill-opacity="1"/><rect x="-144" width="1728" fill="#ffffff" y="-80.999999" height="971.999992" fill-opacity="1"/><path fill="#cb7d06" d="M 332.84375 341.476562 C 312.191406 341.476562 292.273438 344.554688 273.671875 350.410156 C 266.640625 352.601562 336.652344 355.539062 330.0625 358.460938 C 325.378906 360.363281 244.085938 362.269531 239.679688 364.761719 C 217.855469 376.476562 198.378906 392.152344 182.414062 410.898438 C 179.777344 414.121094 326.253906 422.914062 323.761719 426.277344 C 319.378906 432.136719 166.300781 432.578125 162.636719 438.734375 C 160.289062 442.832031 158.109375 446.785156 156.050781 450.894531 C 154.585938 453.671875 202.1875 457.195312 200.871094 459.972656 C 199.550781 463.339844 149.316406 465.828125 147.988281 469.195312 C 139.9375 490.730469 135.386719 514.316406 135.386719 538.773438 C 135.386719 549.316406 136.261719 559.722656 137.878906 569.832031 L 216.679688 481.652344 C 222.683594 475.050781 232.648438 475.050781 238.648438 481.652344 L 257.25 502.589844 L 312.179688 441.214844 C 318.179688 434.628906 328.148438 434.628906 334.160156 441.214844 L 354.066406 463.480469 L 359.9375 456.894531 C 365.9375 450.304688 375.902344 450.304688 381.902344 456.894531 L 413.394531 492.050781 L 422.769531 481.652344 C 428.640625 475.050781 438.59375 475.050781 444.605469 481.652344 L 527.074219 573.785156 C 529.554688 557.375 531.757812 521.347656 524.582031 492.050781 C 523.554688 487.652344 522.964844 485.460938 521.660156 481.210938 C 520.785156 478.574219 475.222656 475.9375 474.347656 473.304688 C 473.472656 470.96875 516.535156 466.417969 515.660156 464.070312 C 504.964844 438.148438 488.996094 414.851562 468.933594 395.808594 C 463.519531 390.679688 397.019531 385.410156 391.148438 380.871094 C 385.878906 376.917969 441.097656 373.695312 435.539062 370.175781 C 405.5 351.871094 370.332031 341.476562 332.84375 341.476562 Z M 332.84375 341.476562 " fill-opacity="1" fill-rule="evenodd"/><path fill="#e18903" d="M 141.976562 557.820312 C 141.386719 551.519531 140.945312 545.21875 140.945312 538.773438 C 140.945312 516.363281 144.898438 494.242188 152.515625 473.148438 C 163.355469 470.511719 220.046875 470.070312 220.191406 460.847656 C 220.347656 452.5 187.671875 447.515625 181.371094 446.484375 C 194.84375 443.121094 258.867188 442.234375 308.515625 437.992188 L 257.25 495.117188 L 242.3125 478.417969 C 234.394531 469.625 221.066406 469.625 213.015625 478.417969 Z M 141.976562 557.820312 " fill-opacity="1" fill-rule="evenodd"/><path fill="#e18903" d="M 448.414062 478.71875 C 470.96875 482.082031 516.820312 484.429688 517.996094 488.972656 C 521.660156 506.542969 523.851562 536.425781 522.679688 561.617188 Z M 448.414062 478.71875 " fill-opacity="1" fill-rule="evenodd"/><path fill="#e18903" d="M 421.167969 368.570312 C 412.519531 369.886719 339.429688 373.109375 339.285156 382.488281 C 339.128906 395.964844 452.800781 393.769531 465.257812 400.070312 C 482.683594 416.769531 496.902344 436.542969 507 458.367188 C 508.617188 461.890625 455.003906 468.332031 440.066406 472.871094 C 432.894531 470.382812 424.6875 472.285156 419.117188 478.441406 L 413.40625 484.742188 L 385.582031 453.683594 C 377.53125 444.75 364.1875 444.75 356.28125 453.683594 L 354.078125 456.175781 L 337.824219 438.015625 C 336.804688 436.988281 335.921875 435.96875 334.757812 435.226562 C 354.976562 432.449219 368.882812 428.636719 369.027344 423.210938 C 369.457031 412.660156 211.996094 410.167969 192.953125 407.535156 C 209.0625 390.394531 221.519531 379.851562 242.167969 369.742188 C 270.4375 368.136719 339.140625 362.269531 352.617188 360.078125 C 363.167969 358.316406 327.273438 351.285156 311.316406 348.207031 C 318.335938 347.476562 325.523438 347.035156 332.84375 347.035156 C 363.746094 347.035156 393.917969 354.363281 421.167969 368.570312 Z M 421.167969 368.570312 " fill-opacity="1" fill-rule="evenodd"/><path fill="#373737" d="M 141.386719 573.199219 L 220.347656 485.019531 C 224.441406 480.480469 231.03125 480.480469 234.996094 485.019531 L 257.261719 509.921875 L 315.84375 444.449219 C 319.953125 440.054688 326.398438 440.054688 330.507812 444.449219 L 354.078125 470.8125 L 363.613281 460.117188 C 367.710938 455.578125 374.164062 455.578125 378.261719 460.117188 L 413.417969 499.367188 L 426.316406 485.007812 C 430.414062 480.464844 437 480.464844 440.964844 485.007812 L 520.066406 573.1875 C 462.203125 560.585938 398.050781 553.566406 330.660156 553.566406 C 263.261719 553.578125 199.253906 560.597656 141.386719 573.199219 Z M 141.386719 573.199219 " fill-opacity="1" fill-rule="evenodd"/><path fill="#ffffff" d="M 232.792969 486.921875 L 257.25 514.160156 L 277.3125 540.964844 C 272.628906 537.3125 261.347656 525.441406 251.394531 516.949219 C 247.871094 514.015625 241.570312 525.15625 239.667969 520.761719 C 237.773438 516.21875 228.828125 491.460938 224.585938 485.304688 C 227.363281 483.84375 230.597656 484.429688 232.792969 486.921875 Z M 232.792969 486.921875 " fill-opacity="1" fill-rule="evenodd"/><g clip-path="url(#509c86f118)"><path fill="#222222" d="M 146.957031 571.292969 L 214.921875 494.984375 C 215.207031 494.695312 210.082031 511.09375 214.191406 510.507812 C 218 509.921875 220.777344 499.964844 221.949219 504.207031 C 224.886719 515.488281 234.253906 528.222656 238.792969 538.917969 C 240.566406 543.3125 247.441406 519.875 250.816406 522.808594 C 255.644531 526.90625 258.421875 529.253906 267.214844 536.582031 C 269.121094 538.1875 253.296875 535.695312 255.203125 537.3125 C 258.28125 539.804688 271.167969 546.835938 277.601562 549.613281 C 280.679688 550.933594 284.199219 552.394531 287.566406 553.710938 C 289.769531 553.710938 291.960938 553.566406 294.308594 553.421875 L 280.679688 540.378906 L 259.152344 512.113281 L 310.417969 454.847656 C 311.304688 454.117188 303.832031 474.910156 308.226562 476.238281 C 311.449219 477.269531 322.734375 462.609375 323.164062 465.984375 C 324.925781 477.269531 325.367188 487.078125 326.242188 503.777344 C 326.386719 507.585938 332.984375 482.09375 333.859375 485.761719 C 336.195312 495.570312 342.054688 517.550781 345.71875 529.121094 C 346.59375 531.910156 337.371094 526.628906 338.253906 529.265625 C 340.589844 536.296875 366.824219 549.925781 366.964844 550.5 C 358.472656 542.152344 354.953125 539.21875 352.175781 532.34375 C 347.777344 521.058594 351.429688 509.203125 355.550781 509.058594 C 363.746094 508.769531 372.390625 515.945312 382.359375 525.609375 C 384.992188 528.390625 371.519531 524.4375 374.296875 527.515625 C 376.058594 529.265625 382.65625 531.46875 387.183594 534.402344 C 395.390625 539.828125 412.230469 544.957031 415.894531 548.464844 L 392.167969 527.660156 L 356.28125 472.730469 C 357.601562 471.125 359.503906 470.382812 363.167969 470.535156 C 365.074219 470.679688 367.863281 468.921875 370.34375 471.855469 C 377.820312 481.375 387.628906 500.265625 395.257812 509.355469 C 399.210938 514.183594 398.921875 496.3125 402.433594 500.710938 C 408.878906 508.769531 419.71875 522.832031 427.035156 531.035156 C 428.351562 532.5 415.175781 524.148438 416.484375 525.609375 C 418.972656 528.390625 425.863281 535.566406 430.246094 538.796875 C 436.691406 543.480469 446.367188 545.097656 447.671875 545.972656 L 433.609375 530.75 L 415.597656 501.308594 L 422.769531 493.402344 C 423.359375 492.816406 423.359375 503.65625 428.195312 505.417969 C 431.121094 506.589844 433.480469 495.019531 435.660156 498.828125 C 443.578125 513.464844 457.496094 538.523438 463.785156 550.96875 C 466.707031 556.539062 477.703125 562.09375 478.289062 562.824219 L 469.941406 549.207031 L 468.753906 530.605469 L 514.175781 571.175781 C 535.253906 575.714844 555.628906 580.839844 575.105469 586.855469 C 500.398438 570.300781 417.789062 561.078125 330.625 561.078125 C 243.617188 561.078125 160.851562 570.3125 86.300781 586.855469 C 105.648438 580.972656 125.863281 575.691406 146.957031 571.292969 Z M 146.957031 571.292969 " fill-opacity="1" fill-rule="evenodd"/></g><path fill="#ffffff" d="M 343.238281 508.757812 C 342.066406 495.570312 321.558594 444.890625 326.097656 443.863281 L 351.011719 474.320312 L 384.40625 522.222656 C 374.585938 514.015625 361.695312 500.542969 352.617188 501.570312 C 348.953125 501.859375 345.585938 504.0625 343.238281 508.757812 Z M 343.238281 508.757812 " fill-opacity="1" fill-rule="evenodd"/><path fill="#ffffff" d="M 394.074219 501.128906 C 390.121094 496.289062 375.613281 469.925781 369.601562 459.828125 C 371.949219 459.386719 374.285156 460.117188 376.046875 462.164062 L 413.40625 503.761719 L 419.847656 515.621094 C 412.675781 507.703125 407.546875 501.847656 401.535156 495.402344 C 397.726562 491.320312 398.011719 505.96875 394.074219 501.128906 Z M 394.074219 501.128906 " fill-opacity="1" fill-rule="evenodd"/><path fill="#ffffff" d="M 463.207031 542.582031 C 461.449219 540.679688 445.335938 502.890625 433.765625 484.429688 C 435.527344 484.429688 437.433594 485.304688 438.894531 486.921875 L 487.378906 541.109375 L 466 523.683594 Z M 463.207031 542.582031 " fill-opacity="1" fill-rule="evenodd"/><path fill="#222222" d="M 330.636719 567.785156 C 250.660156 567.785156 175.8125 576.132812 112.246094 590.78125 C 178.890625 579.644531 252.867188 573.34375 330.636719 573.34375 C 408.566406 573.34375 482.398438 579.644531 549.183594 590.78125 C 485.605469 576.132812 410.769531 567.785156 330.636719 567.785156 Z M 330.636719 567.785156 " fill-opacity="1" fill-rule="evenodd"/><g clip-path="url(#f1766975bc)"><path fill="#222222" d="M 168.074219 417.054688 C 166.300781 418.074219 164.554688 418.960938 162.792969 419.980469 C 163.523438 421.453125 164.410156 423.199219 165.429688 425.25 C 166.300781 422.625 167.042969 419.980469 168.074219 417.054688 Z M 150.636719 428.914062 C 146.539062 432.578125 142.875 436.820312 139.507812 441.515625 C 138.488281 439.179688 137.460938 436.976562 136.441406 434.628906 C 136.585938 440.628906 133.652344 444.449219 133.792969 450.59375 C 130.726562 457.480469 125.601562 465.6875 122.222656 472.71875 C 132.320312 497.761719 144.335938 520.472656 154.445312 539.074219 C 151.652344 498.648438 151.367188 475.652344 161.917969 437.574219 C 158.109375 434.484375 154.300781 431.40625 150.636719 428.914062 Z M 121.335938 470.371094 C 118.703125 436.386719 128.800781 424.960938 145.210938 417.199219 L 141.84375 406.058594 L 140.667969 406.058594 L 138.898438 417.632812 L 126.007812 404.742188 C 125.132812 405.617188 124.117188 406.347656 123.085938 407.234375 C 116.785156 409.136719 110.042969 410.3125 103.753906 412.21875 C 107.71875 432.292969 114.019531 451.910156 121.335938 470.371094 Z M 158.109375 412.074219 C 160.589844 411.042969 163.234375 410.167969 165.871094 409.136719 C 162.648438 408.40625 157.953125 407.820312 154.300781 407.089844 C 155.617188 408.851562 156.933594 410.613281 158.109375 412.074219 Z M 153.125 405.628906 C 153.871094 403.867188 155.460938 402.109375 155.917969 400.203125 C 154.300781 401.378906 152.695312 402.394531 151.234375 403.425781 C 151.808594 404.15625 152.539062 404.898438 153.125 405.628906 Z M 103.621094 411.484375 C 106.257812 408.550781 113.875 400.503906 120.605469 394.644531 L 118.117188 388.488281 C 116.652344 390.679688 115.335938 392.730469 113.875 394.789062 C 109.921875 393.027344 104.351562 391.269531 100.542969 389.664062 C 101.128906 396.980469 102.292969 404.15625 103.621094 411.484375 Z M 138.320312 389.074219 C 149.460938 391.710938 165.714844 398.597656 165.714844 398.597656 C 165.714844 398.597656 165.570312 377.648438 167.777344 374.726562 C 170.109375 371.949219 170.996094 373.410156 173.777344 375.167969 C 176.554688 376.773438 184.03125 382.929688 184.03125 382.929688 C 180.796875 383.375 177.585938 383.804688 174.363281 384.105469 C 174.949219 385.867188 176.253906 385.277344 176.84375 387.027344 C 175.96875 389.519531 174.507812 394.058594 173.621094 396.695312 C 173.621094 396.695312 184.902344 384.679688 193.539062 381.015625 C 202.175781 377.347656 208.632812 380.285156 213.457031 381.890625 C 218.296875 383.507812 236.3125 395.078125 236.3125 395.078125 C 236.3125 395.078125 216.394531 392.871094 213.316406 393.460938 C 210.238281 394.046875 200.128906 389.363281 200.128906 389.363281 C 201.589844 391.855469 204.082031 392.285156 205.683594 394.933594 C 200.257812 396.539062 196.605469 398.296875 191.335938 399.773438 C 189 398.453125 183.875 399.183594 181.527344 397.867188 C 182.699219 400.359375 185.777344 399.183594 186.796875 401.53125 C 183.71875 402.707031 178.746094 407.535156 175.667969 408.5625 C 175.667969 408.5625 198.667969 421.164062 201.886719 426.289062 C 205.109375 431.417969 211.855469 448.855469 212.296875 452.796875 C 212.882812 456.75 214.777344 478.429688 214.777344 478.429688 C 209.21875 472.429688 204.09375 462.761719 198.523438 456.605469 C 199.109375 449.289062 199.398438 445.480469 199.984375 438.003906 C 197.9375 441.082031 195.886719 444.160156 193.839844 447.226562 C 191.347656 442.390625 188.855469 437.5625 186.363281 432.578125 C 186.210938 428.914062 186.210938 425.25 186.078125 421.59375 C 184.316406 422.613281 182.554688 423.789062 180.796875 424.816406 C 178.160156 422.625 174.207031 419.980469 171.417969 417.644531 C 170.097656 421.894531 168.9375 426.277344 167.90625 430.53125 C 172.003906 439.179688 176.410156 448.402344 176.410156 448.402344 C 173.046875 446.355469 169.523438 443.574219 166.003906 440.785156 C 158.527344 484.875 168.0625 530.425781 171.871094 556.058594 L 164.398438 557.078125 C 165.414062 559.136719 166.589844 561.03125 167.621094 562.933594 C 162.195312 566.011719 156.78125 568.945312 151.355469 572.011719 C 117.21875 497.75 104.042969 470.5 96.421875 390.238281 C 87.058594 402.09375 80.3125 415.871094 77.390625 432.28125 C 75.1875 429.789062 72.996094 427.441406 70.804688 424.949219 C 73.871094 432.421875 72.550781 438.425781 75.640625 445.898438 C 75.640625 456.449219 73.882812 469.769531 73.882812 480.324219 C 44.296875 419.679688 64.515625 406.203125 90.289062 381.160156 C 85.75 381.445312 79.296875 383.0625 74.910156 383.507812 C 74.46875 380.570312 75.640625 376.90625 75.199219 373.984375 C 72.996094 377.503906 71.101562 380.570312 69.042969 384.09375 C 63.328125 386.585938 55.722656 390.25 50.152344 392.730469 C 50.308594 388.046875 50.597656 383.363281 50.738281 378.667969 C 47.816406 384.09375 46.058594 390.535156 43.132812 395.949219 C 36.976562 401.222656 29.804688 405.472656 23.644531 410.742188 C 23.644531 410.742188 34.484375 374.269531 41.660156 369.289062 C 48.847656 364.160156 85.019531 367.972656 85.019531 367.972656 C 85.019531 367.972656 74.78125 341.75 75.796875 337.210938 C 76.828125 332.671875 78.589844 334.289062 82.386719 335.308594 C 86.195312 336.335938 97.179688 341.019531 97.179688 341.019531 C 93.957031 342.78125 90.589844 344.542969 87.367188 346.289062 C 88.828125 348.195312 90.003906 347.023438 91.464844 348.925781 C 91.753906 352.292969 92.339844 358.734375 92.636719 362.257812 C 92.636719 362.257812 99.082031 342.769531 106.558594 334.71875 C 114.175781 326.660156 122.523438 327.6875 128.523438 327.832031 C 134.523438 327.976562 159.582031 335.164062 159.582031 335.164062 C 159.582031 335.164062 137.027344 340.433594 133.949219 342.339844 C 130.871094 344.242188 117.683594 342.480469 117.683594 342.480469 C 120.605469 345.117188 123.542969 344.6875 126.320312 347.320312 C 121.347656 351.417969 118.269531 355.082031 113.289062 359.179688 C 110.054688 358.449219 104.929688 361.382812 101.71875 360.640625 C 104.210938 363.277344 106.84375 360.496094 109.179688 363.132812 C 106.390625 365.765625 103.324219 373.828125 100.542969 376.464844 C 100.542969 376.464844 131.445312 382.90625 137.449219 388.175781 C 137.746094 388.488281 138.035156 388.789062 138.320312 389.074219 Z M 138.320312 389.074219 " fill-opacity="1" fill-rule="evenodd"/></g><path fill="#222222" d="M 273.085938 296.796875 L 268.246094 284.785156 L 273.214844 282.292969 C 274.976562 281.417969 279.804688 282.878906 281.265625 283.753906 L 293.421875 290.785156 L 320.660156 276.28125 L 303.675781 267.046875 L 231.605469 247.570312 L 235.558594 241.855469 C 235.558594 241.855469 236.433594 240.394531 240.683594 239.066406 L 309.234375 244.046875 L 323.308594 235.257812 C 325.5 233.9375 328.863281 235.398438 330.914062 238.621094 C 332.53125 241.113281 332.675781 243.890625 331.65625 245.652344 L 375.015625 248.875 L 410.328125 230.417969 C 411.789062 229.53125 417.058594 223.972656 424.675781 221.625 C 433.023438 219.132812 433.46875 220.609375 438.59375 221.039062 C 445.480469 221.625 453.828125 219.132812 455.878906 225.878906 C 460.71875 241.84375 390.839844 275.394531 388.359375 276.125 L 394.804688 275.980469 L 392.597656 291.660156 C 394.214844 291.949219 395.675781 293.121094 396.707031 295.027344 C 398.167969 297.660156 397.882812 300.738281 395.964844 301.769531 L 390.996094 304.691406 L 388.070312 326.515625 C 387.628906 330.613281 385.722656 332.230469 383.375 333.257812 L 376.488281 336.039062 L 366.390625 302.929688 L 348.808594 294.871094 C 347.347656 295.3125 338.84375 299.566406 320.386719 305.265625 C 298.992188 311.710938 292.847656 312.597656 291.386719 313.183594 L 292.117188 324.3125 C 292.273438 326.214844 287.433594 328.707031 286.117188 327.820312 L 270.59375 316.394531 C 268.390625 317.125 262.675781 318.15625 262.101562 316.394531 C 261.359375 313.902344 261.957031 312.742188 262.976562 311.710938 L 233.089844 297.0625 C 232.804688 296.917969 232.660156 296.773438 232.660156 296.617188 L 232.660156 296.476562 C 232.214844 294.859375 236.324219 291.347656 241.296875 292.222656 L 270.738281 296.476562 C 271.609375 296.65625 272.34375 296.65625 273.085938 296.796875 Z M 273.085938 296.796875 " fill-opacity="1" fill-rule="evenodd"/><g fill="#000000" fill-opacity="1"><g transform="translate(537.544203, 486.367964)"><g><path d="M 68.484375 -95.78125 L 68.484375 -30.5625 C 68.484375 -20.46875 65.640625 -12.691406 59.953125 -7.234375 C 54.273438 -1.773438 46.613281 0.953125 36.96875 0.953125 C 26.875 0.953125 18.78125 -1.910156 12.6875 -7.640625 C 6.59375 -13.367188 3.546875 -21.507812 3.546875 -32.0625 L 26.734375 -32.0625 C 26.734375 -28.0625 27.550781 -25.035156 29.1875 -22.984375 C 30.832031 -20.941406 33.203125 -19.921875 36.296875 -19.921875 C 39.109375 -19.921875 41.285156 -20.828125 42.828125 -22.640625 C 44.378906 -24.460938 45.15625 -27.101562 45.15625 -30.5625 L 45.15625 -95.78125 Z M 68.484375 -95.78125 "/></g></g></g><g fill="#000000" fill-opacity="1"><g transform="translate(614.490399, 486.367964)"><g><path d="M 43.109375 1.09375 C 35.648438 1.09375 28.941406 -0.492188 22.984375 -3.671875 C 17.023438 -6.859375 12.335938 -11.410156 8.921875 -17.328125 C 5.515625 -23.242188 3.8125 -30.15625 3.8125 -38.0625 C 3.8125 -45.882812 5.539062 -52.773438 9 -58.734375 C 12.457031 -64.691406 17.1875 -69.257812 23.1875 -72.4375 C 29.195312 -75.625 35.929688 -77.21875 43.390625 -77.21875 C 50.847656 -77.21875 57.578125 -75.625 63.578125 -72.4375 C 69.578125 -69.257812 74.304688 -64.691406 77.765625 -58.734375 C 81.222656 -52.773438 82.953125 -45.882812 82.953125 -38.0625 C 82.953125 -30.238281 81.203125 -23.347656 77.703125 -17.390625 C 74.203125 -11.429688 69.425781 -6.859375 63.375 -3.671875 C 57.320312 -0.492188 50.566406 1.09375 43.109375 1.09375 Z M 43.109375 -19.09375 C 47.566406 -19.09375 51.363281 -20.726562 54.5 -24 C 57.644531 -27.28125 59.21875 -31.96875 59.21875 -38.0625 C 59.21875 -44.15625 57.691406 -48.835938 54.640625 -52.109375 C 51.597656 -55.390625 47.847656 -57.03125 43.390625 -57.03125 C 38.835938 -57.03125 35.0625 -55.414062 32.0625 -52.1875 C 29.0625 -48.957031 27.5625 -44.25 27.5625 -38.0625 C 27.5625 -31.96875 29.035156 -27.28125 31.984375 -24 C 34.941406 -20.726562 38.648438 -19.09375 43.109375 -19.09375 Z M 43.109375 -19.09375 "/></g></g></g><g fill="#000000" fill-opacity="1"><g transform="translate(699.485945, 486.367964)"><g><path d="M 83.640625 -76.125 L 83.640625 0 L 60.3125 0 L 60.3125 -10.375 C 57.945312 -7.007812 54.738281 -4.300781 50.6875 -2.25 C 46.632812 -0.207031 42.15625 0.8125 37.25 0.8125 C 31.425781 0.8125 26.285156 -0.476562 21.828125 -3.0625 C 17.367188 -5.65625 13.910156 -9.40625 11.453125 -14.3125 C 9.003906 -19.226562 7.78125 -25.007812 7.78125 -31.65625 L 7.78125 -76.125 L 30.96875 -76.125 L 30.96875 -34.796875 C 30.96875 -29.703125 32.285156 -25.742188 34.921875 -22.921875 C 37.566406 -20.097656 41.113281 -18.6875 45.5625 -18.6875 C 50.113281 -18.6875 53.707031 -20.097656 56.34375 -22.921875 C 58.988281 -25.742188 60.3125 -29.703125 60.3125 -34.796875 L 60.3125 -76.125 Z M 83.640625 -76.125 "/></g></g></g><g fill="#000000" fill-opacity="1"><g transform="translate(789.529382, 486.367964)"><g><path d="M 31.796875 -63.4375 C 34.523438 -67.625 37.929688 -70.921875 42.015625 -73.328125 C 46.109375 -75.742188 50.660156 -76.953125 55.671875 -76.953125 L 55.671875 -52.25 L 49.25 -52.25 C 43.425781 -52.25 39.0625 -51 36.15625 -48.5 C 33.25 -46 31.796875 -41.613281 31.796875 -35.34375 L 31.796875 0 L 8.453125 0 L 8.453125 -76.125 L 31.796875 -76.125 Z M 31.796875 -63.4375 "/></g></g></g><g fill="#000000" fill-opacity="1"><g transform="translate(846.011121, 486.367964)"><g><path d="M 54.84375 -76.953125 C 63.757812 -76.953125 70.878906 -74.0625 76.203125 -68.28125 C 81.523438 -62.507812 84.1875 -54.578125 84.1875 -44.484375 L 84.1875 0 L 60.984375 0 L 60.984375 -41.34375 C 60.984375 -46.4375 59.664062 -50.390625 57.03125 -53.203125 C 54.394531 -56.023438 50.847656 -57.4375 46.390625 -57.4375 C 41.929688 -57.4375 38.382812 -56.023438 35.75 -53.203125 C 33.113281 -50.390625 31.796875 -46.4375 31.796875 -41.34375 L 31.796875 0 L 8.453125 0 L 8.453125 -76.125 L 31.796875 -76.125 L 31.796875 -66.03125 C 34.160156 -69.394531 37.34375 -72.054688 41.34375 -74.015625 C 45.34375 -75.972656 49.84375 -76.953125 54.84375 -76.953125 Z M 54.84375 -76.953125 "/></g></g></g><g fill="#000000" fill-opacity="1"><g transform="translate(936.054558, 486.367964)"><g><path d="M 80.21875 -39.296875 C 80.21875 -37.109375 80.082031 -34.832031 79.8125 -32.46875 L 27.015625 -32.46875 C 27.378906 -27.738281 28.898438 -24.125 31.578125 -21.625 C 34.265625 -19.125 37.566406 -17.875 41.484375 -17.875 C 47.296875 -17.875 51.34375 -20.328125 53.625 -25.234375 L 78.453125 -25.234375 C 77.179688 -20.234375 74.882812 -15.734375 71.5625 -11.734375 C 68.238281 -7.734375 64.078125 -4.59375 59.078125 -2.3125 C 54.078125 -0.0390625 48.484375 1.09375 42.296875 1.09375 C 34.835938 1.09375 28.195312 -0.492188 22.375 -3.671875 C 16.550781 -6.859375 12 -11.410156 8.71875 -17.328125 C 5.445312 -23.242188 3.8125 -30.15625 3.8125 -38.0625 C 3.8125 -45.976562 5.425781 -52.890625 8.65625 -58.796875 C 11.882812 -64.710938 16.410156 -69.257812 22.234375 -72.4375 C 28.054688 -75.625 34.742188 -77.21875 42.296875 -77.21875 C 49.660156 -77.21875 56.207031 -75.671875 61.9375 -72.578125 C 67.664062 -69.492188 72.144531 -65.082031 75.375 -59.34375 C 78.601562 -53.613281 80.21875 -46.929688 80.21875 -39.296875 Z M 56.34375 -45.4375 C 56.34375 -49.4375 54.976562 -52.617188 52.25 -54.984375 C 49.519531 -57.347656 46.109375 -58.53125 42.015625 -58.53125 C 38.109375 -58.53125 34.8125 -57.390625 32.125 -55.109375 C 29.445312 -52.835938 27.789062 -49.613281 27.15625 -45.4375 Z M 56.34375 -45.4375 "/></g></g></g><g fill="#000000" fill-opacity="1"><g transform="translate(1018.185093, 486.367964)"><g><path d="M 86.234375 -76.125 L 38.46875 36.15625 L 13.375 36.15625 L 30.828125 -2.59375 L -0.140625 -76.125 L 25.921875 -76.125 L 43.53125 -28.515625 L 60.984375 -76.125 Z M 86.234375 -76.125 "/></g></g></g><g fill="#000000" fill-opacity="1"><g transform="translate(1102.498474, 486.367964)"><g><path d="M 31.796875 -77.09375 L 31.796875 -57.71875 L 63.03125 -57.71875 L 63.03125 -39.703125 L 31.796875 -39.703125 L 31.796875 -18.6875 L 67.125 -18.6875 L 67.125 0 L 8.453125 0 L 8.453125 -95.78125 L 67.125 -95.78125 L 67.125 -77.09375 Z M 31.796875 -77.09375 "/></g></g></g><g fill="#000000" fill-opacity="1"><g transform="translate(1174.396755, 486.367964)"><g><path d="M 3.8125 -38.203125 C 3.8125 -46.023438 5.289062 -52.890625 8.25 -58.796875 C 11.207031 -64.710938 15.234375 -69.257812 20.328125 -72.4375 C 25.421875 -75.625 31.109375 -77.21875 37.390625 -77.21875 C 42.753906 -77.21875 47.457031 -76.125 51.5 -73.9375 C 55.550781 -71.757812 58.664062 -68.898438 60.84375 -65.359375 L 60.84375 -76.125 L 84.1875 -76.125 L 84.1875 0 L 60.84375 0 L 60.84375 -10.78125 C 58.570312 -7.226562 55.410156 -4.359375 51.359375 -2.171875 C 47.316406 0.00390625 42.613281 1.09375 37.25 1.09375 C 31.0625 1.09375 25.421875 -0.519531 20.328125 -3.75 C 15.234375 -6.976562 11.207031 -11.570312 8.25 -17.53125 C 5.289062 -23.488281 3.8125 -30.378906 3.8125 -38.203125 Z M 60.84375 -38.0625 C 60.84375 -43.882812 59.226562 -48.476562 56 -51.84375 C 52.769531 -55.207031 48.835938 -56.890625 44.203125 -56.890625 C 39.566406 -56.890625 35.632812 -55.226562 32.40625 -51.90625 C 29.175781 -48.59375 27.5625 -44.023438 27.5625 -38.203125 C 27.5625 -32.378906 29.175781 -27.757812 32.40625 -24.34375 C 35.632812 -20.9375 39.566406 -19.234375 44.203125 -19.234375 C 48.835938 -19.234375 52.769531 -20.914062 56 -24.28125 C 59.226562 -27.644531 60.84375 -32.238281 60.84375 -38.0625 Z M 60.84375 -38.0625 "/></g></g></g><g fill="#000000" fill-opacity="1"><g transform="translate(1265.122352, 486.367964)"><g><path d="M 39.4375 1.09375 C 32.789062 1.09375 26.875 -0.0390625 21.6875 -2.3125 C 16.507812 -4.59375 12.414062 -7.707031 9.40625 -11.65625 C 6.40625 -15.613281 4.722656 -20.050781 4.359375 -24.96875 L 27.421875 -24.96875 C 27.691406 -22.332031 28.914062 -20.191406 31.09375 -18.546875 C 33.28125 -16.910156 35.96875 -16.09375 39.15625 -16.09375 C 42.070312 -16.09375 44.320312 -16.660156 45.90625 -17.796875 C 47.5 -18.941406 48.296875 -20.421875 48.296875 -22.234375 C 48.296875 -24.421875 47.160156 -26.035156 44.890625 -27.078125 C 42.617188 -28.128906 38.9375 -29.289062 33.84375 -30.5625 C 28.382812 -31.832031 23.832031 -33.171875 20.1875 -34.578125 C 16.550781 -35.992188 13.414062 -38.222656 10.78125 -41.265625 C 8.144531 -44.316406 6.828125 -48.4375 6.828125 -53.625 C 6.828125 -57.988281 8.03125 -61.96875 10.4375 -65.5625 C 12.84375 -69.15625 16.390625 -71.992188 21.078125 -74.078125 C 25.765625 -76.171875 31.335938 -77.21875 37.796875 -77.21875 C 47.347656 -77.21875 54.875 -74.851562 60.375 -70.125 C 65.875 -65.394531 69.035156 -59.117188 69.859375 -51.296875 L 48.296875 -51.296875 C 47.929688 -53.929688 46.769531 -56.019531 44.8125 -57.5625 C 42.863281 -59.113281 40.296875 -59.890625 37.109375 -59.890625 C 34.378906 -59.890625 32.285156 -59.367188 30.828125 -58.328125 C 29.378906 -57.285156 28.65625 -55.851562 28.65625 -54.03125 C 28.65625 -51.84375 29.8125 -50.203125 32.125 -49.109375 C 34.445312 -48.023438 38.066406 -46.9375 42.984375 -45.84375 C 48.617188 -44.382812 53.207031 -42.953125 56.75 -41.546875 C 60.300781 -40.140625 63.414062 -37.863281 66.09375 -34.71875 C 68.78125 -31.582031 70.171875 -27.378906 70.265625 -22.109375 C 70.265625 -17.648438 69.015625 -13.664062 66.515625 -10.15625 C 64.015625 -6.65625 60.421875 -3.90625 55.734375 -1.90625 C 51.046875 0.09375 45.613281 1.09375 39.4375 1.09375 Z M 39.4375 1.09375 "/></g></g></g><g fill="#000000" fill-opacity="1"><g transform="translate(1339.339938, 486.367964)"><g><path d="M 80.21875 -39.296875 C 80.21875 -37.109375 80.082031 -34.832031 79.8125 -32.46875 L 27.015625 -32.46875 C 27.378906 -27.738281 28.898438 -24.125 31.578125 -21.625 C 34.265625 -19.125 37.566406 -17.875 41.484375 -17.875 C 47.296875 -17.875 51.34375 -20.328125 53.625 -25.234375 L 78.453125 -25.234375 C 77.179688 -20.234375 74.882812 -15.734375 71.5625 -11.734375 C 68.238281 -7.734375 64.078125 -4.59375 59.078125 -2.3125 C 54.078125 -0.0390625 48.484375 1.09375 42.296875 1.09375 C 34.835938 1.09375 28.195312 -0.492188 22.375 -3.671875 C 16.550781 -6.859375 12 -11.410156 8.71875 -17.328125 C 5.445312 -23.242188 3.8125 -30.15625 3.8125 -38.0625 C 3.8125 -45.976562 5.425781 -52.890625 8.65625 -58.796875 C 11.882812 -64.710938 16.410156 -69.257812 22.234375 -72.4375 C 28.054688 -75.625 34.742188 -77.21875 42.296875 -77.21875 C 49.660156 -77.21875 56.207031 -75.671875 61.9375 -72.578125 C 67.664062 -69.492188 72.144531 -65.082031 75.375 -59.34375 C 78.601562 -53.613281 80.21875 -46.929688 80.21875 -39.296875 Z M 56.34375 -45.4375 C 56.34375 -49.4375 54.976562 -52.617188 52.25 -54.984375 C 49.519531 -57.347656 46.109375 -58.53125 42.015625 -58.53125 C 38.109375 -58.53125 34.8125 -57.390625 32.125 -55.109375 C 29.445312 -52.835938 27.789062 -49.613281 27.15625 -45.4375 Z M 56.34375 -45.4375 "/></g></g></g></svg>