<svg xmlns="http://www.w3.org/2000/svg" xmlns:xlink="http://www.w3.org/1999/xlink" width="500" zoomAndPan="magnify" viewBox="0 0 375 374.999991" height="500" preserveAspectRatio="xMidYMid meet" version="1.0"><defs><g/><clipPath id="5f0bd13fdf"><path d="M 76 249 L 326 249 L 326 262.464844 L 76 262.464844 Z M 76 249 " clip-rule="nonzero"/></clipPath><clipPath id="08938f49b4"><path d="M 26.078125 112 L 148 112 L 148 252 L 26.078125 252 Z M 26.078125 112 " clip-rule="nonzero"/></clipPath></defs><rect x="-37.5" width="450" fill="#ffffff" y="-37.499999" height="449.999989" fill-opacity="1"/><rect x="-37.5" width="450" fill="#ffffff" y="-37.499999" height="449.999989" fill-opacity="1"/><path fill="#cb7d06" d="M 202.074219 120.566406 C 190.324219 120.566406 178.992188 122.316406 168.40625 125.648438 C 164.40625 126.898438 204.242188 128.566406 200.496094 130.230469 C 197.828125 131.3125 151.574219 132.398438 149.0625 133.816406 C 136.644531 140.480469 125.5625 149.402344 116.480469 160.070312 C 114.980469 161.902344 198.328125 166.90625 196.910156 168.820312 C 194.414062 172.152344 107.3125 172.40625 105.226562 175.910156 C 103.890625 178.238281 102.648438 180.488281 101.476562 182.828125 C 100.644531 184.40625 127.730469 186.410156 126.980469 187.992188 C 126.230469 189.90625 97.648438 191.324219 96.890625 193.242188 C 92.3125 205.496094 89.722656 218.914062 89.722656 232.832031 C 89.722656 238.832031 90.21875 244.753906 91.136719 250.503906 L 135.976562 200.328125 C 139.394531 196.574219 145.0625 196.574219 148.476562 200.328125 L 159.0625 212.242188 L 190.320312 177.320312 C 193.734375 173.570312 199.40625 173.570312 202.824219 177.320312 L 214.152344 189.988281 L 217.492188 186.242188 C 220.90625 182.492188 226.578125 182.492188 229.992188 186.242188 L 247.910156 206.246094 L 253.246094 200.328125 C 256.585938 196.574219 262.25 196.574219 265.671875 200.328125 L 312.597656 252.753906 C 314.007812 243.417969 315.261719 222.914062 311.179688 206.246094 C 310.59375 203.742188 310.261719 202.496094 309.515625 200.078125 C 309.019531 198.578125 283.09375 197.078125 282.59375 195.578125 C 282.097656 194.25 306.601562 191.660156 306.101562 190.324219 C 300.015625 175.574219 290.929688 162.316406 279.515625 151.480469 C 276.433594 148.5625 238.59375 145.566406 235.253906 142.980469 C 232.253906 140.734375 263.675781 138.898438 260.511719 136.894531 C 243.417969 126.480469 223.410156 120.566406 202.074219 120.566406 Z M 202.074219 120.566406 " fill-opacity="1" fill-rule="evenodd"/><path fill="#e18903" d="M 93.46875 243.667969 C 93.136719 240.085938 92.882812 236.5 92.882812 232.832031 C 92.882812 220.082031 95.132812 207.492188 99.46875 195.488281 C 105.636719 193.992188 137.894531 193.738281 137.976562 188.488281 C 138.0625 183.738281 119.472656 180.902344 115.886719 180.316406 C 123.554688 178.402344 159.984375 177.898438 188.234375 175.484375 L 159.0625 207.988281 L 150.5625 198.488281 C 146.058594 193.484375 138.472656 193.484375 133.894531 198.488281 Z M 93.46875 243.667969 " fill-opacity="1" fill-rule="evenodd"/><path fill="#e18903" d="M 267.839844 198.660156 C 280.671875 200.574219 306.765625 201.910156 307.433594 204.492188 C 309.515625 214.492188 310.765625 231.496094 310.097656 245.828125 Z M 267.839844 198.660156 " fill-opacity="1" fill-rule="evenodd"/><path fill="#e18903" d="M 252.335938 135.984375 C 247.414062 136.730469 205.824219 138.566406 205.742188 143.902344 C 205.652344 151.570312 270.335938 150.324219 277.421875 153.90625 C 287.339844 163.410156 295.429688 174.660156 301.175781 187.078125 C 302.09375 189.082031 271.589844 192.75 263.089844 195.332031 C 259.007812 193.914062 254.339844 195 251.167969 198.503906 L 247.917969 202.085938 L 232.085938 184.414062 C 227.503906 179.328125 219.914062 179.328125 215.414062 184.414062 L 214.160156 185.832031 L 204.910156 175.5 C 204.332031 174.914062 203.828125 174.335938 203.167969 173.910156 C 214.671875 172.332031 222.585938 170.164062 222.667969 167.074219 C 222.910156 161.070312 133.3125 159.652344 122.476562 158.152344 C 131.644531 148.402344 138.730469 142.402344 150.480469 136.652344 C 166.566406 135.738281 205.660156 132.398438 213.328125 131.148438 C 219.332031 130.148438 198.90625 126.148438 189.828125 124.394531 C 193.824219 123.980469 197.910156 123.726562 202.074219 123.726562 C 219.660156 123.726562 236.828125 127.898438 252.335938 135.984375 Z M 252.335938 135.984375 " fill-opacity="1" fill-rule="evenodd"/><path fill="#373737" d="M 93.136719 252.421875 L 138.0625 202.242188 C 140.394531 199.660156 144.144531 199.660156 146.398438 202.242188 L 159.070312 216.414062 L 192.40625 179.160156 C 194.742188 176.65625 198.410156 176.65625 200.746094 179.160156 L 214.160156 194.160156 L 219.585938 188.074219 C 221.917969 185.492188 225.589844 185.492188 227.921875 188.074219 L 247.925781 210.410156 L 255.265625 202.238281 C 257.597656 199.652344 261.34375 199.652344 263.601562 202.238281 L 308.609375 252.414062 C 275.683594 245.242188 239.179688 241.25 200.835938 241.25 C 162.484375 241.257812 126.0625 245.25 93.136719 252.421875 Z M 93.136719 252.421875 " fill-opacity="1" fill-rule="evenodd"/><path fill="#ffffff" d="M 145.144531 203.328125 L 159.0625 218.828125 L 170.480469 234.078125 C 167.8125 232 161.394531 225.246094 155.730469 220.414062 C 153.726562 218.746094 150.140625 225.082031 149.058594 222.582031 C 147.980469 220 142.890625 205.910156 140.476562 202.40625 C 142.058594 201.574219 143.898438 201.910156 145.144531 203.328125 Z M 145.144531 203.328125 " fill-opacity="1" fill-rule="evenodd"/><path fill="#222222" d="M 96.304688 251.335938 L 134.976562 207.914062 C 135.140625 207.75 132.222656 217.082031 134.5625 216.746094 C 136.726562 216.414062 138.308594 210.75 138.976562 213.164062 C 140.648438 219.582031 145.976562 226.828125 148.558594 232.914062 C 149.570312 235.414062 153.480469 222.078125 155.402344 223.746094 C 158.148438 226.078125 159.730469 227.414062 164.734375 231.585938 C 165.816406 232.5 156.8125 231.082031 157.898438 232 C 159.648438 233.417969 166.984375 237.417969 170.640625 239 C 172.394531 239.75 174.398438 240.582031 176.3125 241.332031 C 177.566406 241.332031 178.8125 241.25 180.148438 241.167969 L 172.394531 233.746094 L 160.144531 217.660156 L 189.316406 185.074219 C 189.820312 184.660156 185.570312 196.492188 188.070312 197.25 C 189.902344 197.835938 196.324219 189.492188 196.570312 191.414062 C 197.570312 197.835938 197.824219 203.417969 198.320312 212.917969 C 198.402344 215.085938 202.15625 200.582031 202.65625 202.667969 C 203.984375 208.25 207.316406 220.753906 209.402344 227.339844 C 209.898438 228.925781 204.652344 225.921875 205.15625 227.421875 C 206.484375 231.421875 221.410156 239.179688 221.492188 239.503906 C 216.660156 234.753906 214.65625 233.085938 213.078125 229.171875 C 210.574219 222.753906 212.652344 216.003906 215 215.921875 C 219.660156 215.757812 224.582031 219.84375 230.25 225.34375 C 231.75 226.921875 224.082031 224.675781 225.664062 226.425781 C 226.667969 227.421875 230.421875 228.675781 233 230.34375 C 237.667969 233.433594 247.25 236.347656 249.335938 238.347656 L 235.832031 226.507812 L 215.414062 195.25 C 216.164062 194.339844 217.246094 193.914062 219.332031 194.003906 C 220.417969 194.085938 222.003906 193.082031 223.414062 194.753906 C 227.667969 200.171875 233.25 210.921875 237.59375 216.09375 C 239.839844 218.839844 239.675781 208.671875 241.675781 211.171875 C 245.339844 215.757812 251.507812 223.761719 255.675781 228.429688 C 256.421875 229.261719 248.925781 224.511719 249.667969 225.34375 C 251.085938 226.921875 255.007812 231.003906 257.5 232.847656 C 261.167969 235.511719 266.675781 236.429688 267.417969 236.929688 L 259.414062 228.265625 L 249.164062 211.511719 L 253.246094 207.015625 C 253.582031 206.679688 253.582031 212.847656 256.335938 213.851562 C 258 214.519531 259.339844 207.933594 260.582031 210.101562 C 265.085938 218.429688 273.007812 232.6875 276.585938 239.769531 C 278.246094 242.941406 284.503906 246.101562 284.839844 246.519531 L 280.085938 238.769531 L 279.414062 228.183594 L 305.257812 251.269531 C 317.253906 253.851562 328.847656 256.769531 339.929688 260.191406 C 297.417969 250.769531 250.414062 245.523438 200.816406 245.523438 C 151.304688 245.523438 104.210938 250.777344 61.789062 260.191406 C 72.796875 256.84375 84.300781 253.839844 96.304688 251.335938 Z M 96.304688 251.335938 " fill-opacity="1" fill-rule="evenodd"/><path fill="#ffffff" d="M 207.992188 215.753906 C 207.324219 208.25 195.65625 179.410156 198.238281 178.824219 L 212.414062 196.15625 L 231.417969 223.414062 C 225.828125 218.746094 218.496094 211.078125 213.328125 211.664062 C 211.242188 211.828125 209.328125 213.082031 207.992188 215.753906 Z M 207.992188 215.753906 " fill-opacity="1" fill-rule="evenodd"/><path fill="#ffffff" d="M 236.917969 211.410156 C 234.667969 208.65625 226.414062 193.65625 222.992188 187.910156 C 224.328125 187.660156 225.65625 188.074219 226.660156 189.238281 L 247.917969 212.910156 L 251.585938 219.65625 C 247.503906 215.152344 244.585938 211.820312 241.164062 208.152344 C 238.996094 205.828125 239.160156 214.164062 236.917969 211.410156 Z M 236.917969 211.410156 " fill-opacity="1" fill-rule="evenodd"/><path fill="#ffffff" d="M 276.257812 235 C 275.253906 233.917969 266.089844 212.414062 259.503906 201.910156 C 260.507812 201.910156 261.589844 202.40625 262.421875 203.328125 L 290.011719 234.160156 L 277.84375 224.246094 Z M 276.257812 235 " fill-opacity="1" fill-rule="evenodd"/><g clip-path="url(#5f0bd13fdf)"><path fill="#222222" d="M 200.820312 249.339844 C 155.3125 249.339844 112.722656 254.089844 76.554688 262.425781 C 114.476562 256.085938 156.566406 252.503906 200.820312 252.503906 C 245.164062 252.503906 287.175781 256.085938 325.179688 262.425781 C 289.003906 254.089844 246.417969 249.339844 200.820312 249.339844 Z M 200.820312 249.339844 " fill-opacity="1" fill-rule="evenodd"/></g><g clip-path="url(#08938f49b4)"><path fill="#222222" d="M 108.320312 163.570312 C 107.3125 164.152344 106.316406 164.65625 105.316406 165.234375 C 105.730469 166.074219 106.234375 167.070312 106.8125 168.234375 C 107.3125 166.742188 107.734375 165.234375 108.320312 163.570312 Z M 98.398438 170.320312 C 96.066406 172.40625 93.980469 174.816406 92.066406 177.488281 C 91.484375 176.160156 90.898438 174.90625 90.320312 173.570312 C 90.402344 176.984375 88.734375 179.160156 88.8125 182.65625 C 87.070312 186.574219 84.152344 191.242188 82.230469 195.246094 C 87.976562 209.496094 94.8125 222.417969 100.5625 233.003906 C 98.976562 210 98.8125 196.914062 104.816406 175.246094 C 102.648438 173.488281 100.484375 171.738281 98.398438 170.320312 Z M 81.726562 193.910156 C 80.226562 174.574219 85.972656 168.070312 95.308594 163.652344 L 93.394531 157.316406 L 92.726562 157.316406 L 91.71875 163.898438 L 84.382812 156.566406 C 83.886719 157.0625 83.308594 157.480469 82.722656 157.984375 C 79.136719 159.066406 75.300781 159.734375 71.722656 160.820312 C 73.976562 172.242188 77.5625 183.40625 81.726562 193.910156 Z M 102.648438 160.738281 C 104.0625 160.152344 105.566406 159.652344 107.066406 159.066406 C 105.234375 158.652344 102.5625 158.316406 100.484375 157.902344 C 101.230469 158.902344 101.980469 159.90625 102.648438 160.738281 Z M 99.816406 157.070312 C 100.238281 156.066406 101.144531 155.066406 101.402344 153.984375 C 100.484375 154.652344 99.570312 155.230469 98.738281 155.816406 C 99.066406 156.230469 99.480469 156.65625 99.816406 157.070312 Z M 71.644531 160.402344 C 73.144531 158.734375 77.480469 154.152344 81.308594 150.820312 L 79.894531 147.316406 C 79.0625 148.5625 78.3125 149.730469 77.480469 150.902344 C 75.230469 149.898438 72.0625 148.898438 69.894531 147.984375 C 70.226562 152.148438 70.890625 156.230469 71.644531 160.402344 Z M 91.390625 147.652344 C 97.730469 149.152344 106.976562 153.070312 106.976562 153.070312 C 106.976562 153.070312 106.894531 141.148438 108.148438 139.484375 C 109.480469 137.90625 109.984375 138.734375 111.566406 139.738281 C 113.144531 140.652344 117.398438 144.15625 117.398438 144.15625 C 115.558594 144.40625 113.730469 144.652344 111.898438 144.824219 C 112.234375 145.824219 112.976562 145.492188 113.308594 146.484375 C 112.8125 147.902344 111.980469 150.484375 111.476562 151.984375 C 111.476562 151.984375 117.898438 145.148438 122.808594 143.0625 C 127.722656 140.976562 131.398438 142.648438 134.144531 143.5625 C 136.898438 144.480469 147.148438 151.066406 147.148438 151.066406 C 147.148438 151.066406 135.816406 149.8125 134.0625 150.144531 C 132.3125 150.480469 126.558594 147.816406 126.558594 147.816406 C 127.390625 149.230469 128.808594 149.476562 129.722656 150.984375 C 126.632812 151.898438 124.554688 152.898438 121.554688 153.738281 C 120.226562 152.988281 117.308594 153.402344 115.972656 152.652344 C 116.640625 154.070312 118.394531 153.402344 118.972656 154.738281 C 117.222656 155.40625 114.394531 158.152344 112.640625 158.738281 C 112.640625 158.738281 125.726562 165.910156 127.5625 168.828125 C 129.394531 171.742188 133.230469 181.667969 133.484375 183.910156 C 133.816406 186.160156 134.894531 198.496094 134.894531 198.496094 C 131.730469 195.082031 128.816406 189.582031 125.644531 186.078125 C 125.980469 181.914062 126.144531 179.746094 126.476562 175.492188 C 125.3125 177.246094 124.144531 178.996094 122.980469 180.742188 C 121.5625 177.988281 120.144531 175.242188 118.726562 172.40625 C 118.640625 170.320312 118.640625 168.234375 118.5625 166.15625 C 117.5625 166.734375 116.5625 167.402344 115.558594 167.988281 C 114.058594 166.742188 111.808594 165.234375 110.222656 163.90625 C 109.472656 166.324219 108.8125 168.820312 108.226562 171.238281 C 110.554688 176.160156 113.0625 181.410156 113.0625 181.410156 C 111.148438 180.242188 109.144531 178.660156 107.140625 177.074219 C 102.886719 202.164062 108.3125 228.082031 110.480469 242.667969 L 106.226562 243.246094 C 106.808594 244.417969 107.476562 245.496094 108.0625 246.578125 C 104.972656 248.332031 101.894531 250 98.804688 251.746094 C 79.382812 209.488281 71.882812 193.984375 67.550781 148.3125 C 62.21875 155.058594 58.382812 162.898438 56.71875 172.234375 C 55.464844 170.816406 54.21875 169.480469 52.972656 168.0625 C 54.714844 172.316406 53.964844 175.730469 55.722656 179.984375 C 55.722656 185.988281 54.722656 193.566406 54.722656 199.570312 C 37.886719 165.066406 49.394531 157.398438 64.058594 143.144531 C 61.476562 143.308594 57.804688 144.230469 55.308594 144.480469 C 55.054688 142.8125 55.722656 140.726562 55.472656 139.0625 C 54.21875 141.066406 53.140625 142.8125 51.96875 144.816406 C 48.71875 146.234375 44.390625 148.320312 41.222656 149.730469 C 41.308594 147.066406 41.472656 144.398438 41.554688 141.726562 C 39.890625 144.816406 38.890625 148.484375 37.226562 151.5625 C 33.722656 154.5625 29.640625 156.980469 26.136719 159.980469 C 26.136719 159.980469 32.304688 139.226562 36.386719 136.390625 C 40.476562 133.472656 61.0625 135.640625 61.0625 135.640625 C 61.0625 135.640625 55.234375 120.722656 55.8125 118.140625 C 56.398438 115.554688 57.402344 116.476562 59.5625 117.054688 C 61.730469 117.640625 67.980469 120.308594 67.980469 120.308594 C 66.144531 121.308594 64.230469 122.308594 62.398438 123.304688 C 63.226562 124.390625 63.894531 123.722656 64.726562 124.804688 C 64.890625 126.71875 65.226562 130.386719 65.394531 132.390625 C 65.394531 132.390625 69.0625 121.300781 73.316406 116.722656 C 77.648438 112.136719 82.402344 112.722656 85.816406 112.804688 C 89.230469 112.882812 103.488281 116.972656 103.488281 116.972656 C 103.488281 116.972656 90.65625 119.972656 88.902344 121.054688 C 87.152344 122.140625 79.648438 121.136719 79.648438 121.136719 C 81.308594 122.636719 82.980469 122.390625 84.5625 123.890625 C 81.734375 126.222656 79.980469 128.308594 77.144531 130.640625 C 75.304688 130.222656 72.390625 131.894531 70.5625 131.472656 C 71.980469 132.96875 73.480469 131.390625 74.808594 132.886719 C 73.21875 134.386719 71.476562 138.976562 69.894531 140.472656 C 69.894531 140.472656 87.476562 144.140625 90.894531 147.140625 C 91.0625 147.316406 91.226562 147.488281 91.390625 147.652344 Z M 91.390625 147.652344 " fill-opacity="1" fill-rule="evenodd"/></g><path fill="#222222" d="M 168.074219 95.144531 L 165.320312 88.308594 L 168.148438 86.890625 C 169.148438 86.390625 171.898438 87.222656 172.726562 87.722656 L 179.644531 91.722656 L 195.144531 83.46875 L 185.480469 78.214844 L 144.46875 67.132812 L 146.71875 63.878906 C 146.71875 63.878906 147.21875 63.050781 149.636719 62.292969 L 188.640625 65.128906 L 196.652344 60.125 C 197.898438 59.375 199.8125 60.207031 200.980469 62.039062 C 201.898438 63.457031 201.980469 65.039062 201.402344 66.039062 L 226.074219 67.875 L 246.167969 57.371094 C 246.996094 56.867188 249.996094 53.703125 254.332031 52.367188 C 259.082031 50.949219 259.332031 51.789062 262.25 52.035156 C 266.171875 52.367188 270.921875 50.949219 272.085938 54.789062 C 274.839844 63.875 235.078125 82.964844 233.667969 83.378906 L 237.332031 83.296875 L 236.078125 92.21875 C 237 92.382812 237.832031 93.050781 238.417969 94.136719 C 239.25 95.632812 239.085938 97.386719 237.996094 97.972656 L 235.164062 99.636719 L 233.503906 112.054688 C 233.25 114.382812 232.167969 115.304688 230.832031 115.890625 L 226.914062 117.472656 L 221.167969 98.632812 L 211.160156 94.046875 C 210.328125 94.296875 205.492188 96.71875 194.988281 99.960938 C 182.816406 103.628906 179.320312 104.132812 178.488281 104.46875 L 178.902344 110.800781 C 178.992188 111.882812 176.238281 113.300781 175.488281 112.796875 L 166.65625 106.292969 C 165.402344 106.710938 162.148438 107.296875 161.824219 106.292969 C 161.402344 104.875 161.742188 104.214844 162.320312 103.628906 L 145.316406 95.292969 C 145.152344 95.210938 145.070312 95.128906 145.070312 95.042969 L 145.070312 94.960938 C 144.816406 94.039062 147.15625 92.042969 149.984375 92.539062 L 166.738281 94.960938 C 167.234375 95.0625 167.652344 95.0625 168.074219 95.144531 Z M 168.074219 95.144531 " fill-opacity="1" fill-rule="evenodd"/><g fill="#000000" fill-opacity="1"><g transform="translate(59.455453, 300.252285)"><g><path d="M 19.234375 -28.203125 L 19.234375 -8.40625 C 19.234375 -5.65625 18.4375 -3.519531 16.84375 -2 C 15.257812 -0.476562 13.132812 0.28125 10.46875 0.28125 C 7.769531 0.28125 5.59375 -0.5 3.9375 -2.0625 C 2.28125 -3.625 1.453125 -5.804688 1.453125 -8.609375 L 7.109375 -8.609375 C 7.140625 -7.390625 7.429688 -6.441406 7.984375 -5.765625 C 8.535156 -5.097656 9.335938 -4.765625 10.390625 -4.765625 C 11.410156 -4.765625 12.1875 -5.085938 12.71875 -5.734375 C 13.257812 -6.378906 13.53125 -7.269531 13.53125 -8.40625 L 13.53125 -28.203125 Z M 19.234375 -28.203125 "/></g></g></g><g fill="#000000" fill-opacity="1"><g transform="translate(82.891173, 300.252285)"><g><path d="M 12.734375 0.359375 C 10.578125 0.359375 8.632812 -0.113281 6.90625 -1.0625 C 5.1875 -2.019531 3.832031 -3.375 2.84375 -5.125 C 1.863281 -6.882812 1.375 -8.90625 1.375 -11.1875 C 1.375 -13.476562 1.878906 -15.5 2.890625 -17.25 C 3.898438 -19 5.28125 -20.351562 7.03125 -21.3125 C 8.78125 -22.269531 10.734375 -22.75 12.890625 -22.75 C 15.046875 -22.75 17 -22.269531 18.75 -21.3125 C 20.5 -20.351562 21.878906 -19 22.890625 -17.25 C 23.898438 -15.5 24.40625 -13.476562 24.40625 -11.1875 C 24.40625 -8.90625 23.882812 -6.882812 22.84375 -5.125 C 21.8125 -3.375 20.410156 -2.019531 18.640625 -1.0625 C 16.878906 -0.113281 14.910156 0.359375 12.734375 0.359375 Z M 12.734375 -4.5625 C 13.753906 -4.5625 14.710938 -4.8125 15.609375 -5.3125 C 16.515625 -5.8125 17.238281 -6.554688 17.78125 -7.546875 C 18.320312 -8.546875 18.59375 -9.757812 18.59375 -11.1875 C 18.59375 -13.320312 18.03125 -14.957031 16.90625 -16.09375 C 15.789062 -17.238281 14.425781 -17.8125 12.8125 -17.8125 C 11.195312 -17.8125 9.84375 -17.238281 8.75 -16.09375 C 7.65625 -14.957031 7.109375 -13.320312 7.109375 -11.1875 C 7.109375 -9.0625 7.640625 -7.425781 8.703125 -6.28125 C 9.765625 -5.132812 11.109375 -4.5625 12.734375 -4.5625 Z M 12.734375 -4.5625 "/></g></g></g><g fill="#000000" fill-opacity="1"><g transform="translate(109.074521, 300.252285)"><g><path d="M 23.921875 -22.390625 L 23.921875 0 L 18.21875 0 L 18.21875 -2.828125 C 17.488281 -1.859375 16.535156 -1.097656 15.359375 -0.546875 C 14.191406 0.00390625 12.925781 0.28125 11.5625 0.28125 C 9.8125 0.28125 8.257812 -0.0859375 6.90625 -0.828125 C 5.5625 -1.566406 4.503906 -2.65625 3.734375 -4.09375 C 2.972656 -5.539062 2.59375 -7.257812 2.59375 -9.25 L 2.59375 -22.390625 L 8.25 -22.390625 L 8.25 -10.0625 C 8.25 -8.28125 8.691406 -6.910156 9.578125 -5.953125 C 10.460938 -5.003906 11.675781 -4.53125 13.21875 -4.53125 C 14.78125 -4.53125 16.003906 -5.003906 16.890625 -5.953125 C 17.773438 -6.910156 18.21875 -8.28125 18.21875 -10.0625 L 18.21875 -22.390625 Z M 23.921875 -22.390625 "/></g></g></g><g fill="#000000" fill-opacity="1"><g transform="translate(136.187204, 300.252285)"><g><path d="M 8.4375 -18.90625 C 9.164062 -20.09375 10.113281 -21.019531 11.28125 -21.6875 C 12.457031 -22.363281 13.800781 -22.703125 15.3125 -22.703125 L 15.3125 -16.765625 L 13.8125 -16.765625 C 12.039062 -16.765625 10.703125 -16.347656 9.796875 -15.515625 C 8.890625 -14.679688 8.4375 -13.226562 8.4375 -11.15625 L 8.4375 0 L 2.78125 0 L 2.78125 -22.390625 L 8.4375 -22.390625 Z M 8.4375 -18.90625 "/></g></g></g><g fill="#000000" fill-opacity="1"><g transform="translate(152.915484, 300.252285)"><g><path d="M 15.1875 -22.703125 C 17.851562 -22.703125 20.007812 -21.859375 21.65625 -20.171875 C 23.300781 -18.492188 24.125 -16.144531 24.125 -13.125 L 24.125 0 L 18.46875 0 L 18.46875 -12.359375 C 18.46875 -14.140625 18.019531 -15.507812 17.125 -16.46875 C 16.238281 -17.425781 15.03125 -17.90625 13.5 -17.90625 C 11.9375 -17.90625 10.703125 -17.425781 9.796875 -16.46875 C 8.890625 -15.507812 8.4375 -14.140625 8.4375 -12.359375 L 8.4375 0 L 2.78125 0 L 2.78125 -22.390625 L 8.4375 -22.390625 L 8.4375 -19.59375 C 9.195312 -20.5625 10.160156 -21.320312 11.328125 -21.875 C 12.503906 -22.425781 13.789062 -22.703125 15.1875 -22.703125 Z M 15.1875 -22.703125 "/></g></g></g><g fill="#000000" fill-opacity="1"><g transform="translate(180.028166, 300.252285)"><g><path d="M 23.59375 -11.671875 C 23.59375 -10.867188 23.539062 -10.144531 23.4375 -9.5 L 7.078125 -9.5 C 7.203125 -7.882812 7.765625 -6.617188 8.765625 -5.703125 C 9.765625 -4.785156 10.988281 -4.328125 12.4375 -4.328125 C 14.539062 -4.328125 16.039062 -5.226562 16.9375 -7.03125 L 23.03125 -7.03125 C 22.382812 -4.875 21.144531 -3.101562 19.3125 -1.71875 C 17.476562 -0.332031 15.226562 0.359375 12.5625 0.359375 C 10.40625 0.359375 8.472656 -0.113281 6.765625 -1.0625 C 5.054688 -2.019531 3.722656 -3.375 2.765625 -5.125 C 1.804688 -6.882812 1.328125 -8.90625 1.328125 -11.1875 C 1.328125 -13.507812 1.796875 -15.546875 2.734375 -17.296875 C 3.679688 -19.046875 5.003906 -20.390625 6.703125 -21.328125 C 8.398438 -22.273438 10.351562 -22.75 12.5625 -22.75 C 14.695312 -22.75 16.601562 -22.289062 18.28125 -21.375 C 19.96875 -20.457031 21.273438 -19.15625 22.203125 -17.46875 C 23.128906 -15.789062 23.59375 -13.859375 23.59375 -11.671875 Z M 17.734375 -13.296875 C 17.710938 -14.742188 17.1875 -15.90625 16.15625 -16.78125 C 15.132812 -17.664062 13.882812 -18.109375 12.40625 -18.109375 C 11 -18.109375 9.816406 -17.679688 8.859375 -16.828125 C 7.910156 -15.984375 7.328125 -14.804688 7.109375 -13.296875 Z M 17.734375 -13.296875 "/></g></g></g><g fill="#000000" fill-opacity="1"><g transform="translate(205.362981, 300.252285)"><g><path d="M 24.203125 -22.390625 L 10.34375 10.59375 L 4.328125 10.59375 L 9.171875 -0.5625 L 0.203125 -22.390625 L 6.546875 -22.390625 L 12.328125 -6.75 L 18.1875 -22.390625 Z M 24.203125 -22.390625 "/></g></g></g><g fill="#000000" fill-opacity="1"><g transform="translate(230.212921, 300.252285)"><g><path d="M 8.4375 -23.640625 L 8.4375 -16.5625 L 17.9375 -16.5625 L 17.9375 -12.078125 L 8.4375 -12.078125 L 8.4375 -4.609375 L 19.15625 -4.609375 L 19.15625 0 L 2.78125 0 L 2.78125 -28.25 L 19.15625 -28.25 L 19.15625 -23.640625 Z M 8.4375 -23.640625 "/></g></g></g><g fill="#000000" fill-opacity="1"><g transform="translate(252.113203, 300.252285)"><g><path d="M 1.328125 -11.265625 C 1.328125 -13.535156 1.78125 -15.546875 2.6875 -17.296875 C 3.59375 -19.046875 4.816406 -20.390625 6.359375 -21.328125 C 7.910156 -22.273438 9.644531 -22.75 11.5625 -22.75 C 13.226562 -22.75 14.6875 -22.410156 15.9375 -21.734375 C 17.1875 -21.066406 18.191406 -20.21875 18.953125 -19.1875 L 18.953125 -22.390625 L 24.640625 -22.390625 L 24.640625 0 L 18.953125 0 L 18.953125 -3.265625 C 18.222656 -2.222656 17.21875 -1.359375 15.9375 -0.671875 C 14.65625 0.015625 13.179688 0.359375 11.515625 0.359375 C 9.628906 0.359375 7.910156 -0.125 6.359375 -1.09375 C 4.816406 -2.0625 3.59375 -3.425781 2.6875 -5.1875 C 1.78125 -6.957031 1.328125 -8.984375 1.328125 -11.265625 Z M 18.953125 -11.1875 C 18.953125 -12.5625 18.679688 -13.738281 18.140625 -14.71875 C 17.597656 -15.707031 16.867188 -16.460938 15.953125 -16.984375 C 15.046875 -17.515625 14.066406 -17.78125 13.015625 -17.78125 C 11.960938 -17.78125 10.988281 -17.523438 10.09375 -17.015625 C 9.207031 -16.503906 8.488281 -15.753906 7.9375 -14.765625 C 7.382812 -13.785156 7.109375 -12.617188 7.109375 -11.265625 C 7.109375 -9.921875 7.382812 -8.742188 7.9375 -7.734375 C 8.488281 -6.722656 9.210938 -5.945312 10.109375 -5.40625 C 11.015625 -4.875 11.984375 -4.609375 13.015625 -4.609375 C 14.066406 -4.609375 15.046875 -4.867188 15.953125 -5.390625 C 16.867188 -5.921875 17.597656 -6.675781 18.140625 -7.65625 C 18.679688 -8.632812 18.953125 -9.8125 18.953125 -11.1875 Z M 18.953125 -11.1875 "/></g></g></g><g fill="#000000" fill-opacity="1"><g transform="translate(279.9128, 300.252285)"><g><path d="M 11.359375 0.359375 C 9.523438 0.359375 7.878906 0.03125 6.421875 -0.625 C 4.972656 -1.28125 3.820312 -2.175781 2.96875 -3.3125 C 2.125 -4.445312 1.660156 -5.703125 1.578125 -7.078125 L 7.265625 -7.078125 C 7.378906 -6.210938 7.804688 -5.492188 8.546875 -4.921875 C 9.285156 -4.359375 10.207031 -4.078125 11.3125 -4.078125 C 12.394531 -4.078125 13.238281 -4.289062 13.84375 -4.71875 C 14.445312 -5.15625 14.75 -5.710938 14.75 -6.390625 C 14.75 -7.109375 14.378906 -7.648438 13.640625 -8.015625 C 12.898438 -8.378906 11.71875 -8.78125 10.09375 -9.21875 C 8.425781 -9.613281 7.0625 -10.023438 6 -10.453125 C 4.9375 -10.890625 4.019531 -11.550781 3.25 -12.4375 C 2.476562 -13.332031 2.09375 -14.535156 2.09375 -16.046875 C 2.09375 -17.285156 2.453125 -18.414062 3.171875 -19.4375 C 3.890625 -20.457031 4.914062 -21.265625 6.25 -21.859375 C 7.582031 -22.453125 9.148438 -22.75 10.953125 -22.75 C 13.617188 -22.75 15.742188 -22.082031 17.328125 -20.75 C 18.921875 -19.414062 19.796875 -17.617188 19.953125 -15.359375 L 14.546875 -15.359375 C 14.460938 -16.242188 14.085938 -16.945312 13.421875 -17.46875 C 12.765625 -18 11.882812 -18.265625 10.78125 -18.265625 C 9.757812 -18.265625 8.972656 -18.070312 8.421875 -17.6875 C 7.867188 -17.3125 7.59375 -16.789062 7.59375 -16.125 C 7.59375 -15.363281 7.96875 -14.785156 8.71875 -14.390625 C 9.476562 -14.003906 10.65625 -13.613281 12.25 -13.21875 C 13.863281 -12.8125 15.191406 -12.390625 16.234375 -11.953125 C 17.285156 -11.523438 18.195312 -10.859375 18.96875 -9.953125 C 19.738281 -9.054688 20.132812 -7.867188 20.15625 -6.390625 C 20.15625 -5.085938 19.796875 -3.925781 19.078125 -2.90625 C 18.367188 -1.882812 17.347656 -1.082031 16.015625 -0.5 C 14.679688 0.0703125 13.128906 0.359375 11.359375 0.359375 Z M 11.359375 0.359375 "/></g></g></g><g fill="#000000" fill-opacity="1"><g transform="translate(302.338366, 300.252285)"><g><path d="M 23.59375 -11.671875 C 23.59375 -10.867188 23.539062 -10.144531 23.4375 -9.5 L 7.078125 -9.5 C 7.203125 -7.882812 7.765625 -6.617188 8.765625 -5.703125 C 9.765625 -4.785156 10.988281 -4.328125 12.4375 -4.328125 C 14.539062 -4.328125 16.039062 -5.226562 16.9375 -7.03125 L 23.03125 -7.03125 C 22.382812 -4.875 21.144531 -3.101562 19.3125 -1.71875 C 17.476562 -0.332031 15.226562 0.359375 12.5625 0.359375 C 10.40625 0.359375 8.472656 -0.113281 6.765625 -1.0625 C 5.054688 -2.019531 3.722656 -3.375 2.765625 -5.125 C 1.804688 -6.882812 1.328125 -8.90625 1.328125 -11.1875 C 1.328125 -13.507812 1.796875 -15.546875 2.734375 -17.296875 C 3.679688 -19.046875 5.003906 -20.390625 6.703125 -21.328125 C 8.398438 -22.273438 10.351562 -22.75 12.5625 -22.75 C 14.695312 -22.75 16.601562 -22.289062 18.28125 -21.375 C 19.96875 -20.457031 21.273438 -19.15625 22.203125 -17.46875 C 23.128906 -15.789062 23.59375 -13.859375 23.59375 -11.671875 Z M 17.734375 -13.296875 C 17.710938 -14.742188 17.1875 -15.90625 16.15625 -16.78125 C 15.132812 -17.664062 13.882812 -18.109375 12.40625 -18.109375 C 11 -18.109375 9.816406 -17.679688 8.859375 -16.828125 C 7.910156 -15.984375 7.328125 -14.804688 7.109375 -13.296875 Z M 17.734375 -13.296875 "/></g></g></g></svg>